<svg xmlns="http://www.w3.org/2000/svg" width="666" height="375" viewBox="0 0 666 375" version="1.1"><path d="M 263.764 88.996 C 258.996 90.431, 254.177 93.978, 251.800 97.800 L 249.500 101.500 249.225 174.438 L 248.949 247.376 251.563 252.718 C 253.636 256.955, 255.245 258.673, 259.338 261.021 L 264.500 263.981 338.593 263.991 L 412.685 264 417.093 261.673 C 419.517 260.394, 422.850 257.430, 424.500 255.088 L 427.500 250.829 427.800 178.664 C 428.009 128.491, 427.766 105.352, 427.005 102.733 C 425.117 96.242, 417.173 88.865, 412.300 89.079 C 411.215 89.127, 411.692 89.575, 413.500 90.207 C 418.459 91.940, 423.106 96.021, 425.087 100.384 L 426.956 104.500 426.978 176.515 L 427 248.530 424.912 252.426 C 423.763 254.569, 421.851 257.174, 420.662 258.216 C 415.073 263.110, 416.954 263.001, 338.282 262.984 L 264.500 262.967 260.542 260.725 C 258.364 259.492, 255.214 256.536, 253.542 254.156 L 250.500 249.829 250.231 177.107 L 249.962 104.386 252.309 99.943 C 253.856 97.013, 256.304 94.479, 259.498 92.500 L 264.342 89.500 337.421 88.984 L 410.500 88.468 338.500 88.320 C 298.900 88.239, 265.269 88.543, 263.764 88.996 M 286.238 169.131 L 286.500 208.261 293 208.446 C 296.575 208.548, 300.063 208.441, 300.750 208.208 C 301.680 207.894, 302 203.716, 302 191.893 L 302 176 317.500 176 L 333 176 333 169.500 C 333 163.998, 332.731 162.991, 331.250 162.943 C 330.288 162.912, 323.425 162.799, 316 162.693 L 302.500 162.500 302.212 153.250 L 301.925 144 318.962 144 L 336 144 336 137 L 336 130 310.988 130 L 285.977 130 286.238 169.131 M 336.667 208.667 C 336.300 209.033, 336 211.958, 336 215.167 L 336 221 361 221 L 386 221 386 214.500 L 386 208 361.667 208 C 348.283 208, 337.033 208.300, 336.667 208.667" stroke="none" fill="#f6f8fb" fill-rule="evenodd"/><path d="M 261.129 91.623 C 257.699 93.332, 254.931 95.658, 253.183 98.300 L 250.500 102.354 250.500 176.091 L 250.500 249.828 253.542 254.155 C 255.214 256.536, 258.364 259.492, 260.542 260.725 L 264.500 262.967 338.282 262.984 C 416.954 263.001, 415.073 263.110, 420.662 258.216 C 421.851 257.174, 423.763 254.569, 424.912 252.426 L 427 248.530 426.978 176.515 L 426.956 104.500 425.087 100.384 C 423.042 95.882, 418.398 91.912, 413.101 90.138 C 410.686 89.330, 388.956 89, 338.047 89 L 266.393 89 261.129 91.623 M 286.238 169.131 L 286.500 208.261 293 208.446 C 296.575 208.548, 300.063 208.441, 300.750 208.208 C 301.680 207.894, 302 203.716, 302 191.893 L 302 176 317.500 176 L 333 176 333 169.500 C 333 163.998, 332.731 162.991, 331.250 162.943 C 330.288 162.912, 323.425 162.799, 316 162.693 L 302.500 162.500 302.212 153.250 L 301.925 144 318.962 144 L 336 144 336 137 L 336 130 310.988 130 L 285.977 130 286.238 169.131 M 336.667 208.667 C 336.300 209.033, 336 211.958, 336 215.167 L 336 221 361 221 L 386 221 386 214.500 L 386 208 361.667 208 C 348.283 208, 337.033 208.300, 336.667 208.667" stroke="none" fill="#5473f9" fill-rule="evenodd"/></svg>