<?xml version="1.0" standalone="no"?>
<!DOCTYPE svg PUBLIC "-//W3C//DTD SVG 20010904//EN"
 "http://www.w3.org/TR/2001/REC-SVG-20010904/DTD/svg10.dtd">
<svg version="1.0" xmlns="http://www.w3.org/2000/svg"
 width="500.000000pt" height="500.000000pt" viewBox="0 0 500.000000 500.000000"
 preserveAspectRatio="xMidYMid meet">

<g transform="translate(0.000000,500.000000) scale(0.100000,-0.100000)"
fill="#000000" stroke="none">
<path d="M1495 3491 c-49 -22 -87 -60 -112 -109 -17 -35 -18 -81 -18 -877 l0
-841 25 -49 c17 -31 44 -62 75 -85 l49 -35 896 -3 c1011 -3 947 -8 1020 75 22
25 45 63 50 84 7 24 9 327 8 866 l-3 828 -22 47 c-13 26 -36 55 -53 65 -16 9
-30 20 -30 24 0 25 -125 29 -967 29 -830 0 -880 -1 -918 -19z m905 -526 l0
-85 -210 0 -210 0 0 -105 0 -105 188 -2 187 -3 3 -82 3 -83 -191 0 -190 0 0
-190 0 -190 -100 0 -100 0 0 458 c0 252 3 462 7 465 3 4 143 7 310 7 l303 0 0
-85z m605 -915 l0 -75 -307 -3 -308 -2 0 73 c0 41 3 77 7 80 4 4 142 6 307 5
l301 -3 0 -75z"/>
</g>
</svg>
